<svg width="482" height="82" viewBox="0 0 482 82" fill="none" xmlns="http://www.w3.org/2000/svg">
<path d="M24.716 69.812H131.489V70.48H24.716V69.812Z" fill="#E5B53B"/>
<path d="M24.716 62.864H131.487V63.5307H24.716V62.864Z" fill="#E5B53B"/>
<path d="M24.716 76.7627H131.488V77.428H24.716V76.7627Z" fill="#E5B53B"/>
<path d="M349.44 69.812H456.215V70.48H349.44V69.812Z" fill="#E5B53B"/>
<path d="M349.44 62.864H456.215V63.5293H349.44V62.864Z" fill="#E5B53B"/>
<path d="M349.44 76.7613H456.215V77.4294H349.44V76.7613Z" fill="#E5B53B"/>
<mask id="mask0_4_156" style="mask-type:luminance" maskUnits="userSpaceOnUse" x="-43" y="-242" width="567" height="567">
<path d="M-43 -242H523.929V324.929H-43V-242Z" fill="white"/>
</mask>
<g mask="url(#mask0_4_156)">
<path d="M16.4076 28.428C13.2449 28.428 10.5529 27.3187 8.3316 25.096C6.11027 22.8747 4.9996 20.164 4.9996 16.964C4.9996 13.84 6.11027 11.1667 8.3316 8.94533C10.5156 6.68533 13.2076 5.55599 16.4076 5.55599H37.6423V12.1067H16.4076C15.7289 12.1067 15.0889 12.2293 14.4876 12.4747C13.8849 12.72 13.3583 13.0667 12.9063 13.5187C12.4543 13.9707 12.1063 14.4987 11.8623 15.1C11.6169 15.7027 11.4943 16.324 11.4943 16.964C11.4943 18.32 11.9649 19.4867 12.9063 20.4653C13.8476 21.4453 15.0143 21.9333 16.4076 21.9333H26.1769C29.3396 21.9333 32.0316 23.0453 34.2529 25.2653C36.5116 27.488 37.6423 30.1787 37.6423 33.3413C37.6423 36.4667 36.5116 39.1587 34.2529 41.4173C32.0316 43.6387 29.3396 44.7493 26.1769 44.7493H4.9996V38.1973H26.1769C26.8556 38.1973 27.4956 38.076 28.0983 37.8307C28.6996 37.5867 29.2276 37.248 29.6796 36.8147C30.1303 36.3827 30.4783 35.864 30.7236 35.2613C30.9689 34.66 31.0903 34.0187 31.0903 33.3413C31.0903 32.024 30.6009 30.876 29.6223 29.8973C28.6809 28.9173 27.5329 28.428 26.1769 28.428H16.4076Z" fill="#E5B53B"/>
<path d="M68.5319 5.55627C73.9532 5.55627 78.5639 7.47627 82.3679 11.3163C86.2452 15.1576 88.1852 19.7696 88.1852 25.1536C88.1852 30.6123 86.2452 35.2243 82.3679 38.9883C78.5639 42.8283 73.9532 44.7496 68.5319 44.7496C63.1105 44.7496 58.4972 42.8283 54.6959 38.9883C50.8559 35.1869 48.9359 30.5749 48.9359 25.1536C48.9359 19.7696 50.8559 15.1576 54.6959 11.3163C58.4599 7.47627 63.0719 5.55627 68.5319 5.55627ZM68.5319 12.1069C64.9545 12.1069 61.8679 13.3869 59.2705 15.9469C56.7465 18.5083 55.4865 21.5763 55.4865 25.1536C55.4865 28.7296 56.7465 31.8163 59.2705 34.4149C61.8679 36.9376 64.9545 38.1976 68.5319 38.1976C72.1079 38.1976 75.1772 36.9376 77.7372 34.4149C80.2972 31.8163 81.5772 28.7296 81.5772 25.1536C81.5772 21.5763 80.2972 18.5083 77.7372 15.9469C75.1772 13.3869 72.1079 12.1069 68.5319 12.1069Z" fill="#E5B53B"/>
</g>
<path d="M99.4792 5.55627H105.974V38.1976H125.57V44.7496H99.4792V5.55627Z" fill="#E5B53B"/>
<path d="M165.497 38.1976H147.481L144.15 44.7483H136.865L156.461 5.55626L176.058 44.7483H168.771L165.497 38.1976ZM150.701 31.7029H162.221L156.461 20.1829L150.701 31.7029Z" fill="#E5B53B"/>
<path d="M230.61 5.55627V12.1069H211.013V21.9336H230.61V28.4283H211.013V38.1976H230.61V44.7496H204.519V5.55627H230.61Z" fill="#E5B53B"/>
<path d="M241.904 5.49961L267.995 28.9929V5.49961H274.546V44.6943V44.6369V44.7503L248.399 21.2556V44.6943H241.904V5.49961Z" fill="#E5B53B"/>
<mask id="mask1_4_156" style="mask-type:luminance" maskUnits="userSpaceOnUse" x="-43" y="-242" width="567" height="567">
<path d="M-43 -242H523.929V324.929H-43V-242Z" fill="white"/>
</mask>
<g mask="url(#mask1_4_156)">
<path d="M305.436 5.55627C310.856 5.55627 315.467 7.47627 319.271 11.3163C323.149 15.1576 325.088 19.7696 325.088 25.1536C325.088 30.6123 323.149 35.2243 319.271 38.9883C315.467 42.8283 310.856 44.7496 305.436 44.7496C300.013 44.7496 295.401 42.8283 291.599 38.9883C287.759 35.1869 285.839 30.5749 285.839 25.1536C285.839 19.7696 287.759 15.1576 291.599 11.3163C295.363 7.47627 299.975 5.55627 305.436 5.55627ZM305.436 12.1069C301.857 12.1069 298.772 13.3869 296.173 15.9469C293.651 18.5083 292.389 21.5763 292.389 25.1536C292.389 28.7296 293.651 31.8163 296.173 34.4149C298.772 36.9376 301.857 38.1976 305.436 38.1976C309.012 38.1976 312.079 36.9376 314.64 34.4149C317.2 31.8163 318.48 28.7296 318.48 25.1536C318.48 21.5763 317.2 18.5083 314.64 15.9469C312.079 13.3869 309.012 12.1069 305.436 12.1069Z" fill="#E5B53B"/>
</g>
<path d="M331.019 5.55627H363.715V12.1069H350.67V44.7496H344.119V12.1069H331.019V5.55627Z" fill="#E5B53B"/>
<mask id="mask2_4_156" style="mask-type:luminance" maskUnits="userSpaceOnUse" x="-43" y="-242" width="567" height="567">
<path d="M-43 -242H523.929V324.929H-43V-242Z" fill="white"/>
</mask>
<g mask="url(#mask2_4_156)">
<path d="M400.142 44.7484L392.575 31.703H381.506V44.7484H375.011V5.55505H394.609C398.183 5.55505 401.253 6.83638 403.814 9.39505C406.373 11.9564 407.653 15.0257 407.653 18.6017C407.653 21.3124 406.882 23.7777 405.337 25.999C403.833 28.183 401.911 29.747 399.578 30.687L407.653 44.7484H400.142ZM394.609 12.1084H381.506V25.095L394.609 25.1524C396.377 25.1524 397.902 24.5124 399.182 23.2324C400.462 21.9524 401.103 20.4084 401.103 18.6017C401.103 16.8324 400.462 15.307 399.182 14.027C397.902 12.7484 396.377 12.1084 394.609 12.1084Z" fill="#E5B53B"/>
</g>
<path d="M418.947 5.55602H425.441V44.7494H418.947V5.55602Z" fill="#E5B53B"/>
<path d="M465.369 38.1976H447.351L444.021 44.7483H436.735L456.333 5.55626L475.93 44.7483H468.643L465.369 38.1976ZM450.571 31.7029H462.093L456.333 20.1829L450.571 31.7029Z" fill="#E5B53B"/>
<mask id="mask3_4_156" style="mask-type:luminance" maskUnits="userSpaceOnUse" x="-43" y="-242" width="567" height="567">
<path d="M-43 -242H523.929V324.929H-43V-242Z" fill="white"/>
</mask>
<g mask="url(#mask3_4_156)">
<path d="M153.027 69.9293C154.268 68.996 154.889 67.8186 154.889 66.3986C154.889 64.556 153.671 63.6346 151.232 63.6346C149.12 63.6346 147.52 63.9933 146.431 64.7106C146.577 64.9906 146.652 65.2866 146.652 65.5973C146.652 67.2666 146.048 70.4293 144.843 75.0866C144.705 75.6106 144.636 76.036 144.636 76.3613C144.636 76.8453 144.989 77.0866 145.696 77.0866C146.296 77.0866 146.975 76.9213 147.732 76.5906C147.625 76.356 147.572 76.1133 147.572 75.864C147.572 75.1573 147.797 73.76 148.248 71.6733C150.192 71.4453 151.785 70.864 153.027 69.9293ZM149.544 65.124C149.952 65.0426 150.249 65.0013 150.437 65.0013C151.523 65.0013 152.064 65.572 152.064 66.7186C152.064 68.9133 150.881 70.1066 148.516 70.3L149.544 65.124ZM157.293 67.7893C157.293 68.588 157.075 69.908 156.636 71.7466C156.199 73.5853 155.98 74.9026 155.98 75.704C155.98 76.624 156.477 77.0866 157.472 77.0866C158.025 77.0866 158.596 76.9 159.185 76.528C158.88 76.1306 158.728 75.6413 158.728 75.0613C158.728 73.8586 159.152 71.6053 160.001 68.3C160.099 67.9186 160.148 67.5946 160.148 67.3306C160.148 66.7386 159.761 66.444 158.988 66.444C158.412 66.444 157.773 66.5746 157.072 66.8333C157.219 67.1493 157.293 67.468 157.293 67.7893ZM160.82 63.7106C160.82 63.1466 160.449 62.864 159.708 62.864C159.257 62.864 158.704 62.984 158.049 63.2226C158.115 63.3453 158.148 63.4493 158.148 63.536C158.148 63.6626 158.123 63.8533 158.072 64.108C158.021 64.3626 157.996 64.5533 157.996 64.68C157.996 65.0573 158.336 65.2453 159.016 65.2453C159.468 65.2453 159.965 65.116 160.508 64.856C160.716 64.3426 160.82 63.9586 160.82 63.7106ZM163.033 67.8026C163.033 68.3373 163.661 68.6053 164.917 68.6053C165.325 68.6053 166.001 68.568 166.947 68.4973C164.881 71.144 163.32 73.1213 162.264 74.4293C161.52 75.356 161.148 76.0813 161.148 76.6053C161.148 76.7893 161.185 77.0413 161.263 77.3613C162.28 77.076 163.471 76.9333 164.835 76.9333C166.652 76.9333 167.952 77.0986 168.736 77.4306C169.021 76.9413 169.164 76.4813 169.164 76.048C169.164 75.4226 168.519 75.1093 167.231 75.1093C167.099 75.1093 166.928 75.1133 166.719 75.1213C166.509 75.1266 166.375 75.132 166.313 75.132C166.1 75.132 165.779 75.1386 165.351 75.1506C164.923 75.164 164.595 75.1706 164.365 75.1706C165.675 73.4146 167.569 71.1013 170.049 68.2306C170.299 67.8586 170.451 67.304 170.507 66.5666C169.388 66.7853 168.159 66.8946 166.82 66.8946C165.333 66.8946 164.288 66.712 163.683 66.3453C163.249 66.9093 163.033 67.396 163.033 67.8026ZM173.011 67.8026C173.011 68.3373 173.639 68.6053 174.895 68.6053C175.303 68.6053 175.979 68.568 176.924 68.4973C174.857 71.144 173.297 73.1213 172.241 74.4293C171.497 75.356 171.125 76.0813 171.125 76.6053C171.125 76.7893 171.163 77.0413 171.239 77.3613C172.257 77.076 173.448 76.9333 174.812 76.9333C176.629 76.9333 177.929 77.0986 178.713 77.4306C178.999 76.9413 179.141 76.4813 179.141 76.048C179.141 75.4226 178.496 75.1093 177.208 75.1093C177.075 75.1093 176.904 75.1133 176.696 75.1213C176.487 75.1266 176.352 75.132 176.291 75.132C176.077 75.132 175.756 75.1386 175.328 75.1506C174.9 75.164 174.572 75.1706 174.343 75.1706C175.652 73.4146 177.547 71.1013 180.027 68.2306C180.276 67.8586 180.428 67.304 180.484 66.5666C179.364 66.7853 178.136 66.8946 176.797 66.8946C175.311 66.8946 174.265 66.712 173.659 66.3453C173.227 66.9093 173.011 67.396 173.011 67.8026ZM188.717 71.412C189.799 70.6106 190.34 69.548 190.34 68.2213C190.34 66.9706 189.601 66.3453 188.125 66.3453C186.333 66.3453 184.8 67.14 183.521 68.7293C182.244 70.3186 181.605 72.0946 181.605 74.0573C181.605 76.1426 182.801 77.184 185.193 77.184C186.187 77.184 187.179 76.9613 188.171 76.516C189.164 76.0706 189.66 75.5146 189.66 74.848C189.66 74.6466 189.596 74.412 189.469 74.1466C188.212 75.14 187.103 75.636 186.14 75.636C185.103 75.636 184.583 74.992 184.583 73.704C184.583 73.4293 184.605 73.0893 184.652 72.68C186.28 72.636 187.636 72.212 188.717 71.412ZM187.049 67.7346C187.553 67.7346 187.805 68.0906 187.805 68.8013C187.805 70.472 186.803 71.3253 184.797 71.3613C185.336 68.9426 186.087 67.7346 187.049 67.7346ZM194.516 76.1613C194.516 75.3426 194.957 74.06 195.84 72.3146C196.723 70.568 197.495 69.696 198.157 69.696C198.355 69.696 198.573 69.8693 198.813 70.216C199.744 69.1413 200.209 68.116 200.209 67.1386C200.209 66.624 199.937 66.368 199.393 66.368C198.372 66.368 197.103 67.7466 195.588 70.5053C195.98 68.872 196.177 67.8453 196.177 67.4293C196.177 66.7826 195.787 66.4586 195.005 66.4586C194.513 66.4586 193.929 66.5786 193.255 66.8186C193.356 67.0773 193.408 67.3346 193.408 67.5893C193.408 68.7386 193.044 70.768 192.319 73.6733C191.996 74.96 191.835 75.7813 191.835 76.132C191.835 76.7586 192.268 77.0693 193.133 77.0693C193.663 77.0693 194.167 77 194.647 76.8573C194.56 76.5866 194.516 76.3546 194.516 76.1613ZM202.247 67.7893C202.247 68.588 202.028 69.908 201.591 71.7466C201.153 73.5853 200.933 74.9026 200.933 75.704C200.933 76.624 201.431 77.0866 202.425 77.0866C202.979 77.0866 203.551 76.9 204.14 76.528C203.835 76.1306 203.681 75.6413 203.681 75.0613C203.681 73.8586 204.107 71.6053 204.956 68.3C205.053 67.9186 205.101 67.5946 205.101 67.3306C205.101 66.7386 204.715 66.444 203.941 66.444C203.367 66.444 202.728 66.5746 202.025 66.8333C202.173 67.1493 202.247 67.468 202.247 67.7893ZM205.775 63.7106C205.775 63.1466 205.404 62.864 204.663 62.864C204.211 62.864 203.657 62.984 203.003 63.2226C203.069 63.3453 203.101 63.4493 203.101 63.536C203.101 63.6626 203.076 63.8533 203.025 64.108C202.975 64.3626 202.949 64.5533 202.949 64.68C202.949 65.0573 203.289 65.2453 203.969 65.2453C204.421 65.2453 204.919 65.116 205.461 64.856C205.671 64.3426 205.775 63.9586 205.775 63.7106ZM212.576 75.308C212.576 76.4933 213.112 77.0866 214.187 77.0866C214.767 77.0866 215.28 76.8933 215.728 76.5066C215.469 75.956 215.339 75.3173 215.339 74.5906C215.339 73.5773 215.505 72.2186 215.839 70.5133C216.172 68.808 216.523 67.5866 216.889 66.848C216.324 66.5786 215.747 66.444 215.156 66.444C214.667 66.444 214.283 66.6 214.003 66.9093C213.433 66.5333 212.776 66.3453 212.033 66.3453C210.527 66.3453 209.236 67.22 208.159 68.9706C207.083 70.7226 206.544 72.5173 206.544 74.3613C206.544 76.244 207.213 77.184 208.552 77.184C209.845 77.184 211.255 75.7946 212.781 73.016C212.644 73.9333 212.576 74.6973 212.576 75.308ZM211.575 72.8546C210.751 74.2146 210.183 74.896 209.873 74.896C209.537 74.896 209.369 74.524 209.369 73.78C209.369 72.6693 209.611 71.42 210.095 70.0306C210.577 68.6426 211.148 67.948 211.804 67.948C212.384 67.948 212.969 68.3453 213.56 69.14C213.061 70.256 212.4 71.4946 211.575 72.8546ZM231.228 71.412C232.309 70.6106 232.851 69.548 232.851 68.2213C232.851 66.9706 232.112 66.3453 230.636 66.3453C228.845 66.3453 227.311 67.14 226.033 68.7293C224.756 70.3186 224.117 72.0946 224.117 74.0573C224.117 76.1426 225.312 77.184 227.705 77.184C228.697 77.184 229.689 76.9613 230.683 76.516C231.675 76.0706 232.171 75.5146 232.171 74.848C232.171 74.6466 232.107 74.412 231.98 74.1466C230.723 75.14 229.613 75.636 228.652 75.636C227.613 75.636 227.095 74.992 227.095 73.704C227.095 73.4293 227.117 73.0893 227.163 72.68C228.792 72.636 230.147 72.212 231.228 71.412ZM229.56 67.7346C230.064 67.7346 230.316 68.0906 230.316 68.8013C230.316 70.472 229.313 71.3253 227.308 71.3613C227.847 68.9426 228.599 67.7346 229.56 67.7346ZM250.896 65.9933C250.896 64.4213 249.705 63.6346 247.323 63.6346C245.363 63.6346 243.701 63.9933 242.339 64.7106C242.485 64.9906 242.56 65.2866 242.56 65.5973C242.56 67.2906 241.956 70.4546 240.751 75.0866C240.612 75.6053 240.544 76.0306 240.544 76.3613C240.544 76.8453 240.875 77.0866 241.536 77.0866C242.095 77.0866 242.749 76.9213 243.504 76.5906C243.397 76.356 243.344 76.1213 243.344 75.888C243.344 75.2826 243.431 74.5293 243.603 73.6266L244.061 71.4146C244.507 71.3373 244.839 71.2773 245.057 71.2306C245.583 73.328 246.067 74.844 246.508 75.7813C246.948 76.7173 247.576 77.184 248.391 77.184C249.373 77.184 250.104 76.6693 250.583 75.636C249.392 75.28 248.521 74.308 247.971 72.72L247.193 70.3986C249.661 69.188 250.896 67.7186 250.896 65.9933ZM245.304 65.176C245.804 65.044 246.227 64.9786 246.573 64.9786C247.613 64.9786 248.132 65.472 248.132 66.4586C248.132 68.4746 246.872 69.6386 244.351 69.948L245.304 65.176ZM254.345 67.7893C254.345 68.588 254.127 69.908 253.689 71.7466C253.251 73.5853 253.033 74.9026 253.033 75.704C253.033 76.624 253.529 77.0866 254.525 77.0866C255.077 77.0866 255.649 76.9 256.239 76.528C255.933 76.1306 255.781 75.6413 255.781 75.0613C255.781 73.8586 256.205 71.6053 257.055 68.3C257.152 67.9186 257.2 67.5946 257.2 67.3306C257.2 66.7386 256.813 66.444 256.04 66.444C255.465 66.444 254.827 66.5746 254.124 66.8333C254.272 67.1493 254.345 67.468 254.345 67.7893ZM257.873 63.7106C257.873 63.1466 257.503 62.864 256.761 62.864C256.308 62.864 255.755 62.984 255.101 63.2226C255.168 63.3453 255.2 63.4493 255.2 63.536C255.2 63.6626 255.175 63.8533 255.124 64.108C255.073 64.3626 255.048 64.5533 255.048 64.68C255.048 65.0573 255.388 65.2453 256.068 65.2453C256.52 65.2453 257.017 65.116 257.561 64.856C257.769 64.3426 257.873 63.9586 257.873 63.7106ZM258.116 75.9266C258.116 76.7653 258.999 77.184 260.765 77.184C262.143 77.184 263.271 76.8213 264.143 76.0946C265.016 75.3666 265.453 74.384 265.453 73.1466C265.453 72.3946 265.18 71.7546 264.636 71.2306C264.132 70.86 263.631 70.4906 263.132 70.124C262.587 69.7226 262.315 69.2973 262.315 68.848C262.315 67.9946 262.717 67.5666 263.521 67.5666C264.092 67.5666 264.689 67.984 265.316 68.8186C266.048 68.284 266.415 67.7573 266.415 67.2373C266.415 66.6426 265.633 66.3453 264.071 66.3453C262.819 66.3453 261.793 66.6786 260.995 67.348C260.195 68.0173 259.796 68.92 259.796 70.0546C259.796 70.7786 260.06 71.3933 260.588 71.9013C262.107 73.028 262.864 73.8466 262.864 74.3613C262.864 75.3386 262.395 75.8266 261.452 75.8266C260.527 75.8266 259.875 75.2346 259.499 74.056C258.577 74.672 258.116 75.2933 258.116 75.9266ZM268.903 74.6746C268.903 76.3386 269.748 77.1706 271.437 77.1706C272.171 77.1706 272.869 76.9893 273.537 76.6266C274.204 76.2666 274.537 75.8173 274.537 75.2773C274.537 75.028 274.453 74.7386 274.285 74.4146C273.576 74.9333 272.963 75.1933 272.445 75.1933C271.857 75.1933 271.563 74.7906 271.563 73.9866C271.563 73.2186 271.793 71.72 272.253 69.4906C272.401 69.4906 272.615 69.4946 272.892 69.5013C273.169 69.5093 273.369 69.512 273.491 69.512C274.845 69.512 275.555 68.8973 275.621 67.6653C274.828 67.8186 274.095 67.8946 273.417 67.8946H272.58C272.584 67.8693 272.717 67.3413 272.973 66.312C273.148 65.6386 273.235 65.1106 273.235 64.728C273.235 64.1373 272.848 63.8413 272.073 63.8413C271.487 63.8413 270.848 63.9706 270.155 64.2306C270.303 64.5466 270.376 64.8653 270.376 65.1866C270.376 65.5906 270.239 66.492 269.965 67.8946C268.824 67.8946 268.137 68.0093 267.907 68.2373C267.675 68.468 267.559 68.8186 267.559 69.2906C267.559 69.4026 267.572 69.5813 267.597 69.8266C268.156 69.6026 268.725 69.4906 269.304 69.4906H269.647C269.151 71.8506 268.903 73.58 268.903 74.6746ZM284.205 74.9186C285.352 73.4053 285.927 71.7653 285.927 69.9946C285.927 68.92 285.603 68.044 284.957 67.364C284.309 66.684 283.465 66.3453 282.421 66.3453C280.819 66.3453 279.441 67.096 278.288 68.5973C277.136 70.0986 276.559 71.7426 276.559 73.5293C276.559 74.6266 276.885 75.512 277.536 76.18C278.188 76.8493 279.051 77.184 280.124 77.184C281.696 77.184 283.057 76.4293 284.205 74.9186ZM279.429 73.6733C279.429 72.356 279.657 71.0626 280.113 69.7946C280.568 68.528 281.157 67.8946 281.88 67.8946C282.664 67.8946 283.056 68.552 283.056 69.864C283.056 71.152 282.832 72.4373 282.384 73.72C281.936 75.0026 281.359 75.644 280.651 75.644C279.836 75.644 279.429 74.9866 279.429 73.6733ZM290.127 76.1613C290.127 75.3426 290.568 74.06 291.451 72.3146C292.333 70.568 293.105 69.696 293.767 69.696C293.965 69.696 294.184 69.8693 294.421 70.216C295.353 69.1413 295.82 68.116 295.82 67.1386C295.82 66.624 295.548 66.368 295.004 66.368C293.981 66.368 292.713 67.7466 291.196 70.5053C291.591 68.872 291.787 67.8453 291.787 67.4293C291.787 66.7826 291.396 66.4586 290.615 66.4586C290.123 66.4586 289.54 66.5786 288.863 66.8186C288.967 67.0773 289.017 67.3346 289.017 67.5893C289.017 68.7386 288.655 70.768 287.928 73.6733C287.605 74.96 287.444 75.7813 287.444 76.132C287.444 76.7586 287.877 77.0693 288.744 77.0693C289.273 77.0693 289.777 77 290.255 76.8573C290.169 76.5866 290.127 76.3546 290.127 76.1613ZM302.056 75.308C302.056 76.4933 302.593 77.0866 303.667 77.0866C304.247 77.0866 304.761 76.8933 305.209 76.5066C304.949 75.956 304.82 75.3173 304.82 74.5906C304.82 73.5773 304.987 72.2186 305.32 70.5133C305.653 68.808 306.003 67.5866 306.369 66.848C305.804 66.5786 305.227 66.444 304.636 66.444C304.148 66.444 303.763 66.6 303.484 66.9093C302.913 66.5333 302.257 66.3453 301.513 66.3453C300.007 66.3453 298.716 67.22 297.639 68.9706C296.563 70.7226 296.025 72.5173 296.025 74.3613C296.025 76.244 296.693 77.184 298.031 77.184C299.325 77.184 300.735 75.7946 302.261 73.016C302.124 73.9333 302.056 74.6973 302.056 75.308ZM301.056 72.8546C300.231 74.2146 299.664 74.896 299.353 74.896C299.017 74.896 298.849 74.524 298.849 73.78C298.849 72.6693 299.091 71.42 299.575 70.0306C300.059 68.6426 300.628 67.948 301.285 67.948C301.864 67.948 302.451 68.3453 303.041 69.14C302.541 70.256 301.88 71.4946 301.056 72.8546ZM311.899 67.4133C311.899 66.768 311.509 66.444 310.732 66.444C310.24 66.444 309.655 66.564 308.979 66.8026C309.081 67.0533 309.132 67.3173 309.132 67.5973C309.132 68.6253 308.773 70.6533 308.056 73.6786L307.749 74.9013C307.623 75.4 307.559 75.8133 307.559 76.1386C307.559 76.7706 307.997 77.0866 308.872 77.0866C309.356 77.0866 309.856 77.0133 310.376 76.8733C310.289 76.6026 310.245 76.372 310.245 76.1773C310.245 75.0786 310.804 73.5333 311.919 71.544C313.037 69.5546 313.76 68.5586 314.091 68.5586C314.264 68.5586 314.351 68.6986 314.351 68.9786C314.351 69.2333 314.095 70.6306 313.583 73.1706C313.381 74.1786 313.28 75.0226 313.28 75.7053C313.28 76.6253 313.759 77.0866 314.715 77.0866C315.284 77.0866 315.86 76.9013 316.445 76.5293C316.139 76.132 315.988 75.6213 315.988 74.9946C315.988 74.216 316.175 73.0453 316.549 71.4826C316.921 69.92 317.109 68.752 317.109 67.9786C317.109 66.8893 316.572 66.3453 315.497 66.3453C314.08 66.3453 312.687 67.7306 311.316 70.5013C311.704 68.8 311.899 67.7706 311.899 67.4133ZM319.995 74.6746C319.995 76.3386 320.84 77.1706 322.528 77.1706C323.263 77.1706 323.961 76.9893 324.629 76.6266C325.296 76.2666 325.629 75.8173 325.629 75.2773C325.629 75.028 325.545 74.7386 325.377 74.4146C324.668 74.9333 324.055 75.1933 323.537 75.1933C322.949 75.1933 322.655 74.7906 322.655 73.9866C322.655 73.2186 322.885 71.72 323.347 69.4906C323.493 69.4906 323.707 69.4946 323.984 69.5013C324.261 69.5093 324.461 69.512 324.583 69.512C325.937 69.512 326.647 68.8973 326.713 67.6653C325.919 67.8186 325.187 67.8946 324.511 67.8946H323.672C323.677 67.8693 323.808 67.3413 324.067 66.312C324.24 65.6386 324.327 65.1106 324.327 64.728C324.327 64.1373 323.94 63.8413 323.165 63.8413C322.579 63.8413 321.94 63.9706 321.247 64.2306C321.395 64.5466 321.468 64.8653 321.468 65.1866C321.468 65.5906 321.331 66.492 321.057 67.8946C319.916 67.8946 319.231 68.0093 318.999 68.2373C318.767 68.468 318.651 68.8186 318.651 69.2906C318.651 69.4026 318.664 69.5813 318.689 69.8266C319.248 69.6026 319.817 69.4906 320.396 69.4906H320.739C320.243 71.8506 319.995 73.58 319.995 74.6746ZM334.671 71.412C335.751 70.6106 336.293 69.548 336.293 68.2213C336.293 66.9706 335.555 66.3453 334.079 66.3453C332.288 66.3453 330.752 67.14 329.475 68.7293C328.197 70.3186 327.56 72.0946 327.56 74.0573C327.56 76.1426 328.755 77.184 331.148 77.184C332.139 77.184 333.132 76.9613 334.125 76.516C335.117 76.0706 335.613 75.5146 335.613 74.848C335.613 74.6466 335.549 74.412 335.421 74.1466C334.165 75.14 333.056 75.636 332.095 75.636C331.056 75.636 330.537 74.992 330.537 73.704C330.537 73.4293 330.56 73.0893 330.605 72.68C332.235 72.636 333.588 72.212 334.671 71.412ZM333.003 67.7346C333.507 67.7346 333.759 68.0906 333.759 68.8013C333.759 70.472 332.755 71.3253 330.749 71.3613C331.289 68.9426 332.041 67.7346 333.003 67.7346Z" fill="#808285"/>
</g>
</svg>
